<svg id="e0029d9a-c025-48bd-b2f2-1d4bbb745891" data-name="Layer 1" xmlns="http://www.w3.org/2000/svg" viewBox="0 0 32 32"><title>icon-settings</title><path d="M16,4a13,13,0,0,1,1.55.11l.79,3.18.11,0a9,9,0,0,1,2,.81l.11,0,2.8-1.67a11.87,11.87,0,0,1,2.17,2.2l-1.67,2.8.06.11a9,9,0,0,1,.82,1.94l0,.13,3.17.79A13.68,13.68,0,0,1,28,16a12.67,12.67,0,0,1-.11,1.55l-3.17.79,0,.13a10.09,10.09,0,0,1-.82,1.94l-.06.11,1.67,2.8a12.93,12.93,0,0,1-2.17,2.2l-2.8-1.69-.11.06a8.44,8.44,0,0,1-2,.81l-.11,0-.79,3.16A13.57,13.57,0,0,1,16,28a12.78,12.78,0,0,1-1.55-.1l-.79-3.16-.11,0a9,9,0,0,1-2-.81l-.11-.06-2.8,1.69a12.88,12.88,0,0,1-2.17-2.2l1.67-2.8-.06-.11a8.82,8.82,0,0,1-.8-1.94l0-.13-3.15-.79A10.3,10.3,0,0,1,4,16a9.67,9.67,0,0,1,.13-1.53l3.15-.79,0-.13a8.82,8.82,0,0,1,.8-1.94l.06-.11L6.51,8.69A11.7,11.7,0,0,1,8.7,6.49l2.78,1.67.11,0a9,9,0,0,1,2-.81l.11,0,.79-3.18A13.84,13.84,0,0,1,16,4Zm3.18,8.83a4.49,4.49,0,0,0-6.36,0,4.49,4.49,0,0,0,0,6.34,4.49,4.49,0,0,0,6.36,0,4.49,4.49,0,0,0,0-6.34Z"/></svg>
