<svg id="a74bf14c-b58e-45ef-a9bf-4c833792094e" data-name="Layer 1" xmlns="http://www.w3.org/2000/svg" viewBox="0 0 1742 420"><defs><style>.f4b83c78-b3d8-49d3-8e42-92f4162d9898{fill:#fff;}.aadd8b61-2bdd-4d8c-801c-e11329eaffc8{fill:#f51919;}.bf2bc98c-6e59-4b48-adad-eebfd9cbe920{fill:none;stroke:#f51919;stroke-miterlimit:10;stroke-width:30px;}</style></defs><title>no-bullshit</title><path class="f4b83c78-b3d8-49d3-8e42-92f4162d9898" d="M191.37,312.94c-7.86-1.75-.14-21,3.3-26.09,0,0,37.6-21.19,41.46-37.61-16.07-4.77-30.94-3.79-41.46,5.76-2.25,5.05-7.09,10.38-12.77,15.36a17.17,17.17,0,0,1-3.16,2.67l-1.26,1.05c-.35,26.87-8.35,39.28.7,41.95-1.05,4.21-1.82,8.42-1.19,12.7,7.36,0,15.36,0,22.73-.07C199.72,328.66,199.23,314.7,191.37,312.94Zm56-217.62,13.26-5.26L244.2,78.77c-9.12-6.6-1.13-12.35-1.13-12.35C221.4,71.82,247.35,95.32,247.35,95.32Zm86.18,31.1.25-.23s-19.15-24.69-41.39-28.62c0,0,42.1-26.45-4.63-40.69l-9.4-2.6S299.2,68.1,295,73.71s-20.14,19.16-20.14,19.16-10-1.41-18.8,3.08-34,5.12-34,5.12-10.53,16.14,1.89,24.35c0,0,5.33-2,8.77-1.69,9.23,1,17.33,11.77,28.16,19.84-5.64,25.06-71,30-96.49,43.3a45.85,45.85,0,0,0-8.14,5.41c-3.7,1.91-8.2,1.48-12-.35a15.85,15.85,0,0,1-6.53-6,8.77,8.77,0,0,1-1-7c1.75-6,9.54-12.77,27.36-18.24,14.52-5.83,27.57-18.59,22.94-33.61a23.64,23.64,0,0,0-2.33-5.21c1.33-2.61,2.62-7.45-3.28-11.2C173,105.21,167,104,166.39,99.18c0,0-2.45,9.54,3.3,14.38,0,0-4.7-1.82-5.61-3.79,0,0,2.88,20.21,16.35,16l.29-.19c3,6-1.63,13.57-7,18.29-10.24,9-45.88,13.82-51.91,31.36-4.8,14.07,7.68,30.67,22.69,34.15a48.55,48.55,0,0,0-1.16,25.76s7.23,29.33-9.54,38.66c-.28,27-8.35,39.56.7,42.23-1.05,4.21-1.82,8.42-1.19,12.7,7.37,0,15.36,0,22.73-.07,0,0-.42-14-8.35-15.72s-.14-21,3.3-26.09c0,0,33.65-18.94,40.53-34.88h0c13.71-12.4,31.8-10,51.39-6.41,0,12.14-4.8,24.08-12,31.88-9.82,10.52-9.33,30.09-9.33,30.09-10.95,5.4-14.39,22.87-14.39,22.87,10.11.21,20.21.35,30.31.56,1-6,.7-14-1-19.5,9-4-3.72-15.78,18.66-36.83,6.2-5.82,17.93-15.37,26.48-24.09,13.49-.19,26.83-3.62,39.19-14.22C362.38,200.72,351.5,151,333.53,126.42ZM257,104.51l-6.17-.91,9.61-2.95S261.52,104.51,257,104.51ZM361.22,305.72c.91-32.27-17.33-42.17-14-93.66-5.68,12.21-19.71,31.36-37,36.55,27.15,17.89,29.61,58.16,36,61-1.75,5.54-2,13.4-1,19.43,10-.14,20.13-.35,30.24-.49C375.46,328.59,372.09,311.12,361.22,305.72Z"/><path class="aadd8b61-2bdd-4d8c-801c-e11329eaffc8" d="M209.5,30A179.51,179.51,0,0,1,336.43,336.43,179.51,179.51,0,0,1,82.57,82.57,178.35,178.35,0,0,1,209.5,30m0-30A208.85,208.85,0,0,0,61.36,61.36c-81.81,81.82-81.81,214.47,0,296.28a209.51,209.51,0,0,0,296.28,0c81.82-81.81,81.82-214.46,0-296.28A208.83,208.83,0,0,0,209.5,0Z"/><line class="bf2bc98c-6e59-4b48-adad-eebfd9cbe920" x1="61.8" y1="60.92" x2="358.08" y2="357.2"/><path class="f4b83c78-b3d8-49d3-8e42-92f4162d9898" d="M247.35,95.32l13.26-5.26L244.2,78.77c-9.12-6.6-1.13-12.35-1.13-12.35C221.4,71.82,247.35,95.32,247.35,95.32Zm45,2.25s42.1-26.45-4.63-40.69l-9.4-2.6S299.2,68.1,295,73.71s-20.14,19.16-20.14,19.16-10-1.41-18.8,3.08-34,5.12-34,5.12-10.53,16.14,1.89,24.35c0,0,5.33-2,8.77-1.69,22.24,2.32,38,61.81,101,2.46C333.78,126.19,314.63,101.5,292.39,97.57ZM257,104.51l-6.17-.91,9.61-2.95S261.52,104.51,257,104.51Zm-72.2,17.38c1.33-2.61,2.62-7.45-3.28-11.2C173,105.21,167,104,166.39,99.18c0,0-2.45,9.54,3.3,14.38,0,0-4.7-1.82-5.61-3.79,0,0,2.88,20.21,16.35,16l.29-.19c3,6-1.63,13.57-7,18.29-10.24,9-45.88,13.82-51.91,31.36C114.69,196,145.28,222.3,166,203.71l-7.43-13.05c-4,3.65-9.68,3.51-14.31,1.27a15.85,15.85,0,0,1-6.53-6,8.77,8.77,0,0,1-1-7c1.75-6,9.54-12.77,27.36-18.24,14.52-5.83,27.57-18.59,22.94-33.61A23.64,23.64,0,0,0,184.76,121.89Z"/><path class="f4b83c78-b3d8-49d3-8e42-92f4162d9898" d="M94.71,243.79c.25-.54.31-1,.12-1.11s-.57.11-1,.55c-1.06.12-3,.47-2.57,1.42.29.62,1,.3,1.76-.2-.26.55-.33,1-.14,1.14s.59-.12,1-.58c-.19.85-.19,1.68.5,1.7C95.45,246.74,95,244.82,94.71,243.79Z"/><path class="f4b83c78-b3d8-49d3-8e42-92f4162d9898" d="M98,256.25c-.52-.58-1-.9-1.27-.74s-.18.75.14,1.47c-.42,1.34-1,3.86.34,3.85.91,0,.92-1.11.69-2.23.53.61,1,.93,1.3.77s.17-.77-.16-1.5c.93.67,1.93,1.11,2.31.3C101.9,256.93,99.35,256.43,98,256.25Z"/><path class="f4b83c78-b3d8-49d3-8e42-92f4162d9898" d="M56.32,260c.92.11,1.61,0,1.7-.35s-.43-.8-1.27-1.17c-.69-1.51-2.13-4.2-3.32-3.11-.78.72.06,1.69,1.14,2.49-.94-.11-1.65,0-1.74.35s.45.81,1.31,1.19c-1.34.13-2.56.53-2.26,1.55C52.33,262.54,55,261,56.32,260Z"/><path class="f4b83c78-b3d8-49d3-8e42-92f4162d9898" d="M71,253c-5-5.21-9.08-15.29-1.54-20.51-7.41,9.54,2.93,15.57,7,22.39,3.07,5.16,2.81,12.88-2.73,16C79.62,264.47,75.55,257.72,71,253Z"/><path class="f4b83c78-b3d8-49d3-8e42-92f4162d9898" d="M105.86,252.46c-3-6.78-3-17.09,6.74-17.67-11.32,4.21-3.34,14.28-2,21.91,1,5.78-2.37,12-9.2,11.83C110,266.2,108.57,258.62,105.86,252.46Z"/><path class="f4b83c78-b3d8-49d3-8e42-92f4162d9898" d="M82.36,233.49c4-4.47,6.89-12.73,0-16.36,7,7.06-1.56,12.54-4.64,18.23-2.33,4.29-1.63,10.39,3.35,12.46C75.6,243.18,78.69,237.55,82.36,233.49Z"/><path class="f4b83c78-b3d8-49d3-8e42-92f4162d9898" d="M120.8,328.1a10.72,10.72,0,0,0-6.71-19.1h-.91c-.51,0-.47-.55,0-1.31a10.53,10.53,0,0,0,1.39-5.25,10.78,10.78,0,0,0-10.74-10.75H100c-.87,0-1.12-.53-.66-1.27a13.87,13.87,0,0,0,1.74-4.62c2.17-11.23-6.78-14.37-10.49-15.18-.85-.18-1.32.41-1.24,1.28a5,5,0,0,1-2.41,5c-4.23,2.46-8.9,4-8.9,8.89a8.81,8.81,0,0,0,1.32,4.63c.46.74.23,1.26-.64,1.26h-3A10.78,10.78,0,0,0,65,302.44a10.53,10.53,0,0,0,1.4,5.25c.43.76.46,1.31,0,1.31h-.91a10.73,10.73,0,0,0-6.72,19.1C59.41,328.64,120.13,328.64,120.8,328.1Z"/><path class="f4b83c78-b3d8-49d3-8e42-92f4162d9898" d="M110.55,291.09a3,3,0,0,0-.64.32c2.59-.35,5.64,2.26,7.08,6.23s.77,7.93-1.45,9.33a3.4,3.4,0,0,0,.7-.17c2.73-1,3.67-5.31,2.1-9.64S113.28,290.1,110.55,291.09Z"/><path class="f4b83c78-b3d8-49d3-8e42-92f4162d9898" d="M74.7,282c1.14-2.95,3.46-4.86,5.42-4.56a2.51,2.51,0,0,0-.49-.25c-2-.78-4.7,1.2-5.94,4.43s-.57,6.47,1.47,7.26a3.18,3.18,0,0,0,.53.14C74,288,73.57,285,74.7,282Z"/><path class="f4b83c78-b3d8-49d3-8e42-92f4162d9898" d="M597.71,294.09q-3.16,0-21.82,4.49t-22.35,5.82q-2.91-35.44-4.89-51.71t-3-24.47q-1.05-11.37-3.7-27.51-.79,5-2.12,12T537.14,228q-4.23,25.39-13.23,73l-39.67,9.25Q513.6,164,519.15,112.63q8.46-.54,15.87-1.19t14.82-1.06c4.93-.27,9.25-.57,13-.93q3.44,20.89,5.55,34.52t3.57,22.35q1.46,8.73,2.78,16.93,2.64,16.14,5.56,28.57,1.05-5.55,2.38-13t2.91-15.74q1.58-8.33,3.44-16.93T593.61,144q2.79-13.62,7-34.25l33.07-4Q604.59,237.75,597.71,294.09Z"/><path class="f4b83c78-b3d8-49d3-8e42-92f4162d9898" d="M763.73,168.44a156.64,156.64,0,0,1-4.63,35.71,174.44,174.44,0,0,1-12.57,36,152.45,152.45,0,0,1-18.38,29.36,139,139,0,0,1-21.82,21.95Q682.78,310,661.09,310q-18.24,0-28.83-13.23-11.64-14.53-11.64-42.32,0-30.15,14-65.07t36.77-58.2Q696,106.29,723,106.28q22.23,0,32.54,18Q763.72,138.82,763.73,168.44ZM726.17,185.1q0-21.94-12.7-21.95-16.14,0-29.1,15.87-10.32,12.71-17.72,34.65a110.25,110.25,0,0,0-5.82,33.86q0,10.59,9,15.87a10.3,10.3,0,0,0,6.09,1.85,31.54,31.54,0,0,0,21.56-8.33,70.83,70.83,0,0,0,15.73-20.5,112.31,112.31,0,0,0,9.66-26A110.22,110.22,0,0,0,726.17,185.1Z"/><path class="f4b83c78-b3d8-49d3-8e42-92f4162d9898" d="M934.66,242.24A43.69,43.69,0,0,1,930,261.55a62,62,0,0,1-12.43,17.2,84.69,84.69,0,0,1-18.25,13.49A134.09,134.09,0,0,1,877.26,302,140.39,140.39,0,0,1,830.71,310a104.88,104.88,0,0,1-18.79-1.59,895.68,895.68,0,0,0,20.64-95.49q7.66-48.13,14.81-96.82,37-7.66,60.58-7.67,27.76,0,38.62,19,4.21,7.14,4.23,17.59a56,56,0,0,1-3.31,19.44,68.91,68.91,0,0,1-8.6,16.4Q928,195.69,913,201.24,934.66,214.47,934.66,242.24Zm-69.57,13q24.07-2.64,33.86-13.49a15.55,15.55,0,0,0,4.23-10.58c0-3.88-.83-6.92-2.51-9.12a19.62,19.62,0,0,0-6.48-5.43A36,36,0,0,0,877,212.35h-2.38a9,9,0,0,0-2.12.26c-.71,4.41-1.37,8.3-2,11.64s-1.19,6.58-1.72,9.66-1.11,6.31-1.72,9.65S865.8,250.8,865.09,255.2Zm13.76-75.91q33.06-7.41,33.06-18.26,0-10.31-16.93-13a40.72,40.72,0,0,0-7.4-.79h-2.91c-.36,1.94-.75,4.28-1.19,7s-.93,5.55-1.46,8.46-1.1,5.82-1.72,8.73S879.2,177,878.85,179.29Z"/><path class="f4b83c78-b3d8-49d3-8e42-92f4162d9898" d="M970.8,116.33c3.87-.35,8.42-.79,13.62-1.32s10.32-1,15.34-1.46,10.27-.92,15.74-1.45q-6.88,32.53-10.85,51.58t-6.34,30.42q-2.38,11.37-4.24,20.9-4.23,20.1-5.55,26.18-4,18.25-4,23.55c0,3.53.75,6.21,2.25,8.06a7.4,7.4,0,0,0,6.08,2.78q3.84,0,6.88-3.7a32.52,32.52,0,0,0,5-8.73,60.78,60.78,0,0,0,3-10.32q1-5.28,2.25-10.71t3.17-15.08q2-9.65,4-20.1t4.1-21.3q5.55-27.76,13-70.36l41-2.64L1074,119.5q-3.18,16.67-7,38.49t-7,37.7q-8.2,41.26-12.17,58.59t-11,28.17a71.43,71.43,0,0,1-16.26,18q-17.73,13.21-41,13.22-14.29,0-24.61-7.93-11.64-9.53-11.63-25.13v-2.12c0-.7.21-3.08.66-7.14s1.45-11.33,3-21.82,3.31-21.43,5.16-32.81,3.83-22.79,6-34.25,4-21.86,5.82-31.21Q969.74,121.08,970.8,116.33Z"/><path class="f4b83c78-b3d8-49d3-8e42-92f4162d9898" d="M1106.39,270.81q10-.8,28-.79a156.48,156.48,0,0,0,1.59,16.79c.7,4.33,1.19,7.5,1.45,9.53s.48,3.39.66,4.1l-8.2-.27a307.06,307.06,0,0,0-55.28,5,155.11,155.11,0,0,0-16.4,4.23q6.35-48.93,16.79-102.9t17.86-90.73l47.61-6.35q-24.6,104.22-28.7,128T1106.39,270.81Z"/><path class="f4b83c78-b3d8-49d3-8e42-92f4162d9898" d="M1193.31,270.81q10.05-.8,28-.79a156.48,156.48,0,0,0,1.59,16.79c.7,4.33,1.19,7.5,1.45,9.53s.49,3.39.66,4.1l-8.2-.27a307.06,307.06,0,0,0-55.28,5,155.11,155.11,0,0,0-16.4,4.23q6.35-48.93,16.8-102.9t17.85-90.73l47.61-6.35q-24.6,104.22-28.7,128T1193.31,270.81Z"/><path class="f4b83c78-b3d8-49d3-8e42-92f4162d9898" d="M1327.58,170.56a45.75,45.75,0,0,0,1.33-11.11,14.45,14.45,0,0,0-2.91-9.39q-2.93-3.59-6.22-3.58a14.28,14.28,0,0,0-6.48,1.59,33.37,33.37,0,0,0-6.35,4.23q-7.41,6.09-7.41,13.1t3.71,11.37a45.43,45.43,0,0,0,9.12,8.07q5.43,3.71,11.77,7.67a57.57,57.57,0,0,1,11.91,10.05q12.69,14.82,12.69,39.42,0,29.63-21.69,48.93-20.62,18.52-52.11,18.52-23.28,0-42.59-24.34l20.11-39.41q3.7,7.41,14.28,13.49,10.58,6.34,15.87,6.35a31.57,31.57,0,0,0,8.87-1.06,21.14,21.14,0,0,0,6.48-3.17q6.6-4.77,6.61-11.51a19.81,19.81,0,0,0-4.23-12.3,62.73,62.73,0,0,0-10.45-10.58q-6.23-5-13.49-10.19a116.58,116.58,0,0,1-13.36-11q-14.82-13.23-14.81-27.78a46.24,46.24,0,0,1,8.33-26.71,83,83,0,0,1,20.9-21,109.11,109.11,0,0,1,27.51-14q14.94-5.16,25.26-5.16a63,63,0,0,1,16.8,1.85,33,33,0,0,1,11.24,5.56q10.31,8.46,10.31,24.86a43.61,43.61,0,0,1-.66,7.67c-.44,2.47-.84,5.21-1.19,8.2Z"/><path class="f4b83c78-b3d8-49d3-8e42-92f4162d9898" d="M1354.19,309.43q23.55-123,34.39-195.75l43.91-3.17Q1421.92,155,1415.3,190.4l26.71-3.18q3.71-19,6.75-37.16t7.8-37.17q10.57-1.85,22.49-2.78t16.4-1.19l4.49-.53q-13,42.33-25.39,118.77-6.09,34.4-11.11,70.37l-42.32,4.76q3.44-16.14,6.21-30.42t5.56-28.31q2.77-14,4.63-24.07l-26.45,2.38Q1405,255.47,1396,300.7Z"/><path class="f4b83c78-b3d8-49d3-8e42-92f4162d9898" d="M1558,112.63q-30.15,153.42-36.76,191-7.41,0-25.66,2.38t-18.78,2.65q8.46-30.69,15.6-66.93,16.39-82.78,23.28-122.47Z"/><path class="f4b83c78-b3d8-49d3-8e42-92f4162d9898" d="M1565.86,149.66l1.33-34.65q13.74,1,27.77,1a568.91,568.91,0,0,0,72.22-4.49l-2.91,14.55c-.89,4.06-1.72,8.24-2.52,12.56s-1.54,8.07-2.25,11.24a83.73,83.73,0,0,1-12.16,2.25q-6.09.66-11.91,1.72-4.76,20.37-9.52,50.52-10.59,66.66-14.81,97.08l-48.68,7.68q21.43-100.53,28.84-157.4a77.13,77.13,0,0,0-12.7-.52A39.6,39.6,0,0,1,1565.86,149.66Z"/><path class="f4b83c78-b3d8-49d3-8e42-92f4162d9898" d="M1660.72,315.25q-7.14,0-11.64-2.25a22.94,22.94,0,0,1-7.4-5.69,27.68,27.68,0,0,1-6.09-17.72q0-17.19,15.08-24.34a27.64,27.64,0,0,1,11.9-2.38q15.87,0,23.68,7.41t7.8,16.93a25.13,25.13,0,0,1-8.73,19.31Q1675.54,315.25,1660.72,315.25Zm81.21-208.71q-14.55,34.12-26.59,68.65t-23.93,69.43q-7.94,0-15.74.53l-15.74,1.06q8.46-33.06,16.4-66.13t16.66-66.4q5-.8,11.77-1.72t13.49-2q6.75-1,13.1-1.85T1741.93,106.54Z"/></svg>